<svg width="299" height="286" viewBox="0 0 299 286" fill="none" opacity="0.5" xmlns="http://www.w3.org/2000/svg">
<path d="M174.417 148.217C174.417 148.77 173.969 149.217 173.417 149.217H125.583C125.031 149.217 124.583 148.77 124.583 148.217V100.478C124.583 99.926 125.031 99.4783 125.583 99.4783H173.417C173.969 99.4783 174.417 99.926 174.417 100.478V148.217ZM249.167 100.478C249.167 99.926 248.719 99.4783 248.167 99.4783H200.333C199.781 99.4783 199.333 99.926 199.333 100.478V148.217C199.333 148.77 199.781 149.217 200.333 149.217H248.167C248.719 149.217 249.167 148.77 249.167 148.217V100.478ZM99.6667 175.087C99.6667 174.535 99.2189 174.087 98.6667 174.087H50.8333C50.281 174.087 49.8333 174.535 49.8333 175.087V222.826C49.8333 223.378 50.281 223.826 50.8333 223.826H98.6667C99.2189 223.826 99.6667 223.378 99.6667 222.826V175.087ZM174.417 175.087C174.417 174.535 173.969 174.087 173.417 174.087H125.583C125.031 174.087 124.583 174.535 124.583 175.087V222.826C124.583 223.378 125.031 223.826 125.583 223.826H173.417C173.969 223.826 174.417 223.378 174.417 222.826V175.087ZM99.6667 100.478C99.6667 99.926 99.2189 99.4783 98.6667 99.4783H50.8333C50.281 99.4783 49.8333 99.926 49.8333 100.478V148.217C49.8333 148.77 50.281 149.217 50.8333 149.217H98.6667C99.2189 149.217 99.6667 148.77 99.6667 148.217V100.478ZM298 0C298.552 0 299 0.447715 299 1V166.452C299 196.184 216.177 286 176.771 286H0.999998C0.447713 286 0 285.552 0 285V1.00001C0 0.447722 0.447715 0 1 0H298ZM274.083 74.6087H24.9167V261.13H166.468C213.666 261.13 202.125 199.134 199.715 188.169C199.551 187.42 200.226 186.756 200.971 186.936C211.922 189.581 274.083 202.541 274.083 155.969V74.6087Z" fill="#FFFFFF" fill-opacity="0.075"/>
</svg>
